<?xml version="1.0" encoding="UTF-8"?>
<svg width="227px" height="227px" viewBox="0 0 227 227" version="1.1" xmlns="http://www.w3.org/2000/svg" xmlns:xlink="http://www.w3.org/1999/xlink">
    <!-- Generator: Sketch 3.6.1 (26313) - http://www.bohemiancoding.com/sketch -->
    <title>BTC_2_</title>
    <desc>Created with Sketch.</desc>
    <defs></defs>
    <g id="Page-1" stroke="none" stroke-width="1" fill="none" fill-rule="evenodd">
        <g id="BTC" fill="#476172">
            <g id="BTC_2_">
                <path d="M135.715,122.244 C133.101,120.934 127.278,119.17 120.347,118.711 C113.413,118.253 104.519,118.711 104.519,118.711 L104.519,148.731 C104.519,148.731 113.806,148.929 120.022,148.471 C126.232,148.013 132.643,146.444 135.848,144.676 C139.051,142.91 142.911,140.163 142.911,133.297 C142.911,126.428 138.332,123.552 135.715,122.244 L135.715,122.244 Z" id="Shape"></path>
                <path d="M116.16,104.779 C121.264,104.582 126.692,103.406 130.613,101.247 C134.538,99.089 136.761,95.69 136.633,90.587 C136.499,85.485 133.101,81.169 127.346,79.401 C121.589,77.635 117.733,77.504 113.348,77.439 C108.966,77.375 104.518,77.767 104.518,77.767 L104.518,104.779 C104.519,104.779 111.059,104.976 116.16,104.779 L116.16,104.779 Z" id="Shape"></path>
                <path d="M113.413,0 C50.777,0 0,50.776 0,113.413 C0,176.049 50.777,226.826 113.413,226.826 C176.049,226.826 226.824,176.049 226.824,113.413 C226.824,50.776 176.049,0 113.413,0 L113.413,0 Z M159.591,156.777 C151.151,162.664 142.126,163.712 138.136,164.233 C136.167,164.492 132.794,164.765 129.177,164.977 L129.177,187.715 L115.179,187.715 L115.179,165.345 L104.519,165.345 L104.519,187.715 L90.522,187.715 L90.522,165.345 L62.987,165.345 L65.864,148.533 L74.235,148.533 C77.049,148.533 78.224,148.272 79.401,147.161 C80.578,146.048 80.84,144.349 80.84,142.973 L80.84,85.057 C80.84,81.429 80.545,80.447 78.877,78.584 C77.209,76.717 73.286,76.472 71.077,76.472 L62.986,76.472 L62.986,61.939 L90.521,61.939 L90.521,39.505 L104.517,39.505 L104.517,61.939 L115.177,61.939 L115.177,39.505 L129.175,39.505 L129.175,62.208 C139.61,62.855 147.378,64.843 154.158,69.853 C162.924,76.328 162.464,87.577 162.268,90.259 C162.073,92.941 160.896,98.109 158.539,101.442 C156.187,104.779 150.431,108.115 150.431,108.115 C150.431,108.115 157.232,109.553 162.009,113.151 C166.78,116.749 170.316,123.092 170.115,132.38 C169.923,141.668 168.027,150.891 159.591,156.777 L159.591,156.777 Z" id="Shape"></path>
            </g>
        </g>
    </g>
</svg>