<?xml version="1.0" encoding="UTF-8"?>
<svg width="227px" height="227px" viewBox="0 0 227 227" version="1.1" xmlns="http://www.w3.org/2000/svg" xmlns:xlink="http://www.w3.org/1999/xlink">
    <!-- Generator: Sketch 3.6.1 (26313) - http://www.bohemiancoding.com/sketch -->
    <title>Layer_1</title>
    <desc>Created with Sketch.</desc>
    <defs></defs>
    <g id="Page-1" stroke="none" stroke-width="1" fill="none" fill-rule="evenodd">
        <g id="DASH" fill="#476172">
            <g id="Layer_1">
                <path d="M113.388,0 C50.766,0 0,50.766 0,113.388 C0,176.011 50.766,226.777 113.389,226.777 C176.012,226.777 226.778,176.011 226.778,113.388 C226.777,50.766 176.011,0 113.388,0 L113.388,0 Z M56.562,104.802 L101.828,104.802 L96.59,121.826 L51.326,121.826 L56.562,104.802 L56.562,104.802 Z M173.83,96.773 C172.029,103.279 166.174,122.796 163.771,129.718 C161.371,136.64 156.942,142.452 151.265,145.775 C145.589,149.098 143.468,150.487 135.534,150.487 L54.303,150.487 L60.024,131.945 L136.419,131.945 L147.833,94.836 L72.043,94.836 L77.765,76.295 L162.342,76.295 C166.217,76.295 171.338,78.087 173.83,82.934 C176.321,87.775 175.629,90.267 173.83,96.773 L173.83,96.773 Z" id="Shape"></path>
            </g>
        </g>
    </g>
</svg>