<?xml version="1.0" encoding="UTF-8"?>
<svg width="227px" height="227px" viewBox="0 0 227 227" version="1.1" xmlns="http://www.w3.org/2000/svg" xmlns:xlink="http://www.w3.org/1999/xlink">
    <!-- Generator: Sketch 3.6.1 (26313) - http://www.bohemiancoding.com/sketch -->
    <title>ETH-alt</title>
    <desc>Created with Sketch.</desc>
    <defs></defs>
    <g id="Page-1" stroke="none" stroke-width="1" fill="none" fill-rule="evenodd">
        <g id="BTC" transform="translate(-441.000000, 0.000000)" fill="#476172">
            <g id="ETH-alt" transform="translate(441.000000, 0.000000)">
                <g id="Layer_1">
                    <path d="M113.313,0 C50.732,0 0,50.732 0,113.313 C0,175.894 50.732,226.626 113.313,226.626 C175.894,226.626 226.626,175.894 226.626,113.313 C226.626,50.732 175.894,0 113.313,0 L113.313,0 Z M111.844,188.386 L67.064,125.042 L111.844,151.26 L111.844,188.386 L111.844,188.386 Z M111.844,141.976 L66.761,115.568 L111.844,95.82 L111.844,141.976 L111.844,141.976 Z M111.844,92.647 L68.213,111.757 L111.844,38.451 L111.844,92.647 L111.844,92.647 Z M114.75,38.429 L158.994,112.029 L114.75,92.647 L114.75,38.429 L114.75,38.429 Z M114.75,188.386 L114.75,151.26 L159.53,125.042 L114.75,188.386 L114.75,188.386 Z M114.75,141.977 L114.75,95.821 L159.866,115.583 L114.75,141.977 L114.75,141.977 Z" id="Shape"></path>
                </g>
            </g>
        </g>
    </g>
</svg>