<?xml version="1.0" encoding="UTF-8"?>
<svg width="227px" height="227px" viewBox="0 0 227 227" version="1.1" xmlns="http://www.w3.org/2000/svg" xmlns:xlink="http://www.w3.org/1999/xlink">
    <!-- Generator: Sketch 3.6.1 (26313) - http://www.bohemiancoding.com/sketch -->
    <title>LTC</title>
    <desc>Created with Sketch.</desc>
    <defs></defs>
    <g id="Page-1" stroke="none" stroke-width="1" fill="none" fill-rule="evenodd">
        <g id="BTC" transform="translate(-64.000000, 0.000000)" fill="#476172">
            <g id="LTC" transform="translate(64.000000, 0.000000)">
                <g id="Layer_1">
                    <path d="M113.441,0 C50.789,0 0,50.79 0,113.443 C0,176.097 50.789,226.884 113.441,226.884 C176.095,226.884 226.884,176.097 226.884,113.443 C226.885,50.79 176.096,0 113.441,0 L113.441,0 Z M157.477,168.762 L68.839,168.762 L76.289,133.196 L61.803,143.129 L65.322,123.666 L80.473,113.236 L95.335,42.297 L123.006,42.297 L112.774,91.007 L148.8,66.213 L144.578,86.38 L108.558,111.073 L101.432,145.003 L162.4,145.003 L157.477,168.762 L157.477,168.762 Z" id="LTC"></path>
                </g>
            </g>
        </g>
    </g>
</svg>