<?xml version="1.0" encoding="UTF-8"?>
<svg width="227px" height="227px" viewBox="0 0 227 227" version="1.1" xmlns="http://www.w3.org/2000/svg" xmlns:xlink="http://www.w3.org/1999/xlink">
    <!-- Generator: Sketch 3.6.1 (26313) - http://www.bohemiancoding.com/sketch -->
    <title>Layer_1</title>
    <desc>Created with Sketch.</desc>
    <defs></defs>
    <g id="Page-1" stroke="none" stroke-width="1" fill="none" fill-rule="evenodd">
        <g id="XRP" fill="#476172">
            <g id="Layer_1">
                <path d="M113.48,0.183 C50.908,0.183 0.183,50.908 0.183,113.48 C0.183,176.052 50.908,226.777 113.48,226.777 C176.052,226.777 226.777,176.051 226.777,113.48 C226.777,50.908 176.052,0.183 113.48,0.183 L113.48,0.183 Z M160.899,163.96 C153.534,176.616 136.994,181.079 123.958,173.93 C110.921,166.781 106.323,150.725 113.69,138.068 C116.758,132.796 114.843,126.108 109.41,123.127 C104.054,120.19 97.278,121.961 94.149,127.068 L94.147,127.068 L94.147,127.047 C94.103,127.125 94.064,127.202 94.019,127.279 C86.654,139.935 70.115,144.399 57.079,137.249 C44.041,130.1 39.443,114.042 46.808,101.389 C54.175,88.732 70.713,84.269 83.752,91.42 C88.109,93.81 91.517,97.199 93.859,101.12 L93.859,101.106 L93.861,101.104 C97.109,106.136 103.916,107.758 109.202,104.707 C114.564,101.612 116.327,94.883 113.138,89.677 C105.487,77.183 109.718,61.032 122.589,53.605 C135.458,46.177 152.095,50.284 159.748,62.777 C167.399,75.272 163.17,91.422 150.297,98.85 C145.994,101.333 141.269,102.521 136.6,102.544 L136.612,102.549 L136.612,102.551 C130.437,102.758 125.531,107.712 125.605,113.742 C125.678,119.852 130.844,124.75 137.138,124.678 L137.099,124.699 C141.69,124.663 146.35,125.752 150.632,128.1 C163.666,135.251 168.264,151.306 160.899,163.96 L160.899,163.96 Z" id="XRP_alt"></path>
            </g>
        </g>
    </g>
</svg>