<?xml version="1.0" encoding="UTF-8"?>
<svg width="306px" height="306px" viewBox="0 0 306 306" version="1.1" xmlns="http://www.w3.org/2000/svg" xmlns:xlink="http://www.w3.org/1999/xlink">
    <!-- Generator: Sketch 3.6.1 (26313) - http://www.bohemiancoding.com/sketch -->
    <title>Layer_1</title>
    <desc>Created with Sketch.</desc>
    <defs></defs>
    <g id="Page-1" stroke="none" stroke-width="1" fill="none" fill-rule="evenodd">
        <g id="XRP" fill="#476172">
            <g id="ZEC-alt">
                <g id="Layer_1">
                    <path d="M152.785389,0.15659396 C68.4038356,0.15659396 0,68.5835336 0,153.003081 C0,237.413386 68.4038356,305.843406 152.785389,305.843406 C237.165916,305.843406 305.570779,237.413386 305.570779,153.003081 C305.570779,68.5835336 237.165916,0.15659396 152.785389,0.15659396 L152.785389,0.15659396 Z M206.607503,115.222862 C205.647916,120.342201 199.89604,124.819248 196.059232,129.302456 C183.914728,143.700372 171.768171,157.77894 159.303805,172.179936 C154.51049,177.940027 149.717174,183.059366 144.284134,188.816376 L206.607503,188.816376 L206.607503,220.175215 L168.254305,220.175215 C168.893517,229.136497 169.212352,237.45446 169.851564,246.415742 L137.571131,246.415742 L137.571131,220.497131 L99.2189597,220.497131 C99.2189597,210.255372 97.9420772,200.017721 99.8586846,190.418768 C100.817245,185.296349 106.570148,180.816735 110.08504,176.338148 C122.229544,161.938178 134.37456,147.858584 146.838926,133.461695 C151.633268,128.02198 156.428124,122.903154 161.860651,116.821148 L102.094641,116.821148 L102.094641,85.4648758 L137.570104,85.4648758 L137.570104,59.2264027 L168.572628,59.2264027 L168.572628,84.8241242 L207.244661,84.8241242 C207.246201,95.382151 208.524111,105.623396 206.607503,115.222862 L206.607503,115.222862 Z" id="Shape"></path>
                </g>
            </g>
        </g>
    </g>
</svg>