<?xml version="1.0" encoding="UTF-8"?>
<svg width="227px" height="136px" viewBox="0 0 227 136" version="1.1" xmlns="http://www.w3.org/2000/svg" xmlns:xlink="http://www.w3.org/1999/xlink">
    <!-- Generator: Sketch 3.6.1 (26313) - http://www.bohemiancoding.com/sketch -->
    <title>Group</title>
    <desc>Created with Sketch.</desc>
    <defs></defs>
    <g id="Page-1" stroke="none" stroke-width="1" fill="none" fill-rule="evenodd">
        <g id="DASH-alt" fill="#476172">
            <g id="Group">
                <path d="M92.683,52.738 L10.195,52.738 L0.65,83.765 L83.138,83.765 L92.683,52.738 Z" id="Shape"></path>
                <path d="M223.896,12.882 C219.357,4.053 210.022,0.785 202.959,0.785 L48.831,0.785 L38.405,34.575 L176.524,34.575 L155.721,102.201 L16.501,102.201 L6.074,135.991 L154.106,135.991 C168.57,135.991 172.436,133.46 182.779,127.405 C193.122,121.35 201.193,110.756 205.568,98.143 C209.944,85.53 220.618,49.962 223.896,38.106 C227.177,26.251 228.437,21.711 223.896,12.882 L223.896,12.882 Z" id="Shape"></path>
            </g>
        </g>
    </g>
</svg>